<?xml version="1.0" standalone="no"?><!DOCTYPE svg PUBLIC "-//W3C//DTD SVG 1.1//EN" "http://www.w3.org/Graphics/SVG/1.1/DTD/svg11.dtd"><svg t="1681884574381" class="icon" viewBox="0 0 1024 1024" version="1.1" xmlns="http://www.w3.org/2000/svg" p-id="7970" width="32" height="32" xmlns:xlink="http://www.w3.org/1999/xlink"><path d="M158 128.2v801.4c0 16.6-13.4 30-30 30s-30-13.4-30-30V128.2c0-16.6 13.4-30 30-30s30 13.4 30 30zM468.1 629.5v300c0 16.6-13.4 30-30 30s-30-13.4-30-30v-300c0-16.6 13.4-30 30-30s30 13.4 30 30z" p-id="7971" fill="#8595f4"></path><path d="M898.3 959.3H128.5c-16.6 0-30-13.4-30-30s13.4-30 30-30h769.8c16.6 0 30 13.4 30 30s-13.4 30-30 30zM401.1 370.3L165.4 606c-11.7 11.7-30.7 11.7-42.4 0s-11.7-30.7 0-42.4l235.7-235.7c11.7-11.7 30.7-11.7 42.4 0s11.7 30.7 0 42.4zM779.2 288.2L554.8 512.6c-11.7 11.7-30.7 11.7-42.4 0s-11.7-30.7 0-42.4l224.4-224.4c11.7-11.7 30.7-11.7 42.4 0 11.7 11.6 11.7 30.6 0 42.4z" p-id="7972" fill="#8595f4"></path><path d="M512.3 512.6L365.7 366c-11.7-11.7-11.7-30.7 0-42.4s30.7-11.7 42.4 0l146.6 146.6c11.7 11.7 11.7 30.7 0 42.4s-30.7 11.7-42.4 0zM287.2 723.2v176c0 16.6-13.4 30-30 30s-30-13.4-30-30v-176c0-16.6 13.4-30 30-30s30 13.4 30 30zM847.8 542.9v356.3c0 16.6-13.4 30-30 30s-30-13.4-30-30V542.9c0-16.6 13.4-30 30-30 16.5 0 30 13.5 30 30z" p-id="7973" fill="#8595f4"></path><path d="M847.8 496.9v356.3c0 16.6-13.4 30-30 30s-30-13.4-30-30V496.9c0-16.6 13.4-30 30-30 16.5 0 30 13.4 30 30zM657.6 671v228.2c0 16.6-13.4 30-30 30s-30-13.4-30-30V671c0-16.6 13.4-30 30-30s30 13.4 30 30zM637.7 182l234.7-28.4L844 388.3z" p-id="7974" fill="#8595f4"></path></svg>