<svg t="1693986026585" class="icon" viewBox="0 0 1024 1024" version="1.1" xmlns="http://www.w3.org/2000/svg" p-id="1135"
    width="32" height="32">
    <path
        d="M512 62c-248.526 0-449.981 201.464-449.981 450s201.455 450 449.981 450 449.981-201.464 449.981-450-201.455-450-449.981-450zM759.751 652.25c-11.622 10.848-31.574-0.968-50.752-27.507-8.33 22.47-19.177 43.197-31.767 61.795 27.119 9.685 44.554 24.796 44.554 41.843 0 29.444-52.108 53.272-116.418 53.272-38.16 0-71.866-8.33-93.172-21.308-21.114 12.979-55.013 21.308-93.172 21.308-64.312 0-116.418-23.827-116.418-53.272 0-16.853 17.434-32.155 44.554-41.843-12.785-18.597-23.438-39.324-31.767-61.795-19.177 26.346-39.128 38.356-50.752 27.507-15.884-14.916-9.879-67.607 13.752-117.584 5.423-11.429 11.235-21.696 17.24-30.607 3.293-145.286 98.984-261.903 216.37-261.903h0.387c117.386 0 213.078 116.422 216.37 261.903 6.006 8.911 11.816 19.178 17.24 30.607 23.44 49.978 29.639 102.668 13.755 117.584z"
        fill="#F08519" p-id="1136"></path>
</svg>