<svg t="1693986093630" class="icon" viewBox="0 0 1024 1024" version="1.1" xmlns="http://www.w3.org/2000/svg" p-id="1603"
    width="32" height="32">
    <path d="M0 512c0 282.77 229.23 512 512 512s512-229.23 512-512S794.77 0 512 0 0 229.23 0 512z" fill="#2BA246"
        p-id="1604"></path>
    <path
        d="M636.826 400.742c7.889 0.06 15.768 0.556 23.603 1.485C639.283 303.616 533.914 230.4 413.594 230.4c-134.452 0-244.634 91.648-244.634 208.077 0 67.174 36.66 122.368 97.894 165.222l-24.473 73.575 85.299-42.855c30.72 5.99 55.142 12.237 85.658 12.237 7.68 0 15.36-0.358 22.784-0.922a183.45 183.45 0 0 1-7.527-51.2c0.307-107.008 92.058-193.792 208.23-193.792z m-131.482-66.56a30.72 30.72 0 1 1 0 61.133c-18.278 0-36.71-12.288-36.71-30.72s18.33-30.157 36.71-30.157v-0.256z m-171.213 61.39c-18.38 0-36.864-12.289-36.864-30.72 0-18.433 18.483-30.72 36.864-30.72 16.966 0 30.72 13.753 30.72 30.72 0 16.965-13.754 30.72-30.72 30.72z"
        fill="#FFFFFF" p-id="1605"></path>
    <path
        d="M652.34 413.952c-116.43 0-208.078 79.77-208.078 177.51 0 97.741 91.648 177.51 208.077 177.51 24.371 0 48.947-6.092 73.37-12.236l67.123 36.864-18.38-61.44c49.1-36.864 85.708-85.76 85.708-140.902 0-97.588-97.894-177.306-207.82-177.306z m-67.482 146.893c-13.517 0-24.474-10.957-24.474-24.474 0-13.516 10.957-24.473 24.474-24.473 18.585 0 30.72 12.288 30.72 24.473 0 12.186-12.135 24.474-30.72 24.474z m134.553 0c-13.516 0-24.473-10.957-24.473-24.474 0-13.516 10.957-24.473 24.473-24.473 18.381 0 30.72 12.288 30.72 24.473 0 12.186-12.339 24.474-30.72 24.474z"
        fill="#FFFFFF" p-id="1606"></path>
</svg>