<svg t="1693986044538" class="icon" viewBox="0 0 1325 1024" version="1.1" xmlns="http://www.w3.org/2000/svg" p-id="1289"
    width="32" height="32">
    <path
        d="M240.941176 512c0 233.411765 188.235294 421.647059 421.647059 421.647059s421.647059-188.235294 421.647059-421.647059S896 90.352941 662.588235 90.352941 240.941176 278.588235 240.941176 512z"
        fill="#5A9EF7" p-id="1290"></path>
    <path
        d="M751.435294 564.705882s15.058824-21.082353 30.117647-63.247058c16.564706-42.164706 18.070588-66.258824 18.070588-66.258824l-120.470588-1.505882v-40.658824l146.070588-1.505882v-30.117647H677.647059v-66.258824h-72.282353V361.411765H466.823529v30.117647l137.035295-1.505883v45.176471h-108.42353v24.094118h225.882353c-1.505882 15.058824-6.023529 28.611765-10.541176 42.164706-9.035294 22.588235-18.070588 43.670588-18.070589 43.670588s-105.411765-37.647059-162.635294-37.647059c-55.717647 0-123.482353 22.588235-131.011764 87.341176-6.023529 64.752941 31.623529 100.894118 85.835294 112.941177 52.705882 12.047059 102.4 0 146.070588-21.082353 43.670588-21.082353 85.835294-69.270588 85.835294-69.270588l224.376471 109.929411s13.552941-21.082353 24.094117-40.658823c7.529412-13.552941 13.552941-28.611765 19.576471-42.164706l-233.411765-79.811765z m-231.905882 106.917647c-79.811765 0-94.870588-39.152941-94.870588-66.258823 0-27.105882 16.564706-58.729412 84.329411-63.247059 66.258824-4.517647 158.117647 48.188235 158.117647 48.188235s-67.764706 81.317647-147.57647 81.317647z"
        fill="#FFFFFF" p-id="1291"></path>
</svg>